<?xml version="1.0" standalone="no"?>
<!DOCTYPE svg PUBLIC "-//W3C//DTD SVG 20010904//EN"
 "http://www.w3.org/TR/2001/REC-SVG-20010904/DTD/svg10.dtd">
<svg version="1.0" xmlns="http://www.w3.org/2000/svg"
 width="500.000000pt" height="500.000000pt" viewBox="0 0 500.000000 500.000000"
 preserveAspectRatio="xMidYMid meet">
<metadata>
Created by potrace 1.14, written by Peter Selinger 2001-2017
</metadata>
<g transform="translate(0.000000,500.000000) scale(0.100000,-0.100000)"
fill="#000000" stroke="none">
<path d="M0 2500 l0 -2500 2500 0 2500 0 0 2500 0 2500 -2500 0 -2500 0 0
-2500z m2346 1623 c-3 -16 -55 -314 -116 -663 -61 -349 -113 -651 -117 -670
-5 -31 12 -15 148 140 85 96 372 410 638 697 l483 523 416 0 416 0 -55 -57
c-31 -32 -321 -337 -644 -678 -323 -341 -606 -639 -628 -662 l-39 -41 406
-860 c223 -473 406 -863 406 -866 0 -4 -163 -5 -362 -4 l-362 3 -280 627
c-155 345 -284 628 -287 628 -9 0 -419 -380 -419 -388 0 -4 -34 -200 -75 -437
-41 -236 -75 -431 -75 -432 0 -7 -629 -2 -633 5 -2 4 119 711 269 1572 150
861 273 1571 274 1578 0 9 71 12 321 12 l321 0 -6 -27z"/>
</g>
</svg>
